HIERARCHY
ROOT Hips
{
	OFFSET 0.000000 0.000000 0.000000
	CHANNELS 6 Xposition Yposition Zposition Zrotation Yrotation Xrotation 
	JOINT LHipJoint
	{
		OFFSET 0.000000 0.000000 0.000000
		CHANNELS 3 Zrotation Yrotation Xrotation
		JOINT LeftUpLeg
		{
			OFFSET 1.363060 -1.794630 0.839290
			CHANNELS 3 Zrotation Yrotation Xrotation
			JOINT LeftLeg
			{
				OFFSET 2.448110 -6.726130 0.000000
				CHANNELS 3 Zrotation Yrotation Xrotation
				JOINT LeftFoot
				{
					OFFSET 2.562200 -7.039590 0.000000
					CHANNELS 3 Zrotation Yrotation Xrotation
					JOINT LeftToeBase
					{
						OFFSET 0.157640 -0.433110 2.322550
						CHANNELS 3 Zrotation Yrotation Xrotation
						End Site
						{
							OFFSET 0.000000 0.000000 0.000000
						}
					}
				}
			}
		}
	}
	JOINT RHipJoint
	{
		OFFSET 0.000000 0.000000 0.000000
		CHANNELS 3 Zrotation Yrotation Xrotation
		JOINT RightUpLeg
		{
			OFFSET -1.305520 -1.794630 0.839290
			CHANNELS 3 Zrotation Yrotation Xrotation
			JOINT RightLeg
			{
				OFFSET -2.542530 -6.985550 0.000000
				CHANNELS 3 Zrotation Yrotation Xrotation
				JOINT RightFoot
				{
					OFFSET -2.568260 -7.056230 0.000000
					CHANNELS 3 Zrotation Yrotation Xrotation
					JOINT RightToeBase
					{
						OFFSET -0.164730 -0.452590 2.363150
						CHANNELS 3 Zrotation Yrotation Xrotation
						End Site
						{
							OFFSET 0.000000 0.000000 0.000000
						}
					}
				}
			}
		}
	}
	JOINT LowerBack
	{
		OFFSET 0.000000 0.000000 0.000000
		CHANNELS 3 Zrotation Yrotation Xrotation
		JOINT Spine
		{
			OFFSET 0.028270 2.035590 -0.193380
			CHANNELS 3 Zrotation Yrotation Xrotation
			JOINT Spine1
			{
				OFFSET 0.056720 2.048850 -0.042750
				CHANNELS 3 Zrotation Yrotation Xrotation
				JOINT Neck
				{
					OFFSET 0.000000 0.000000 0.000000
					CHANNELS 3 Zrotation Yrotation Xrotation
					JOINT Neck1
					{
						OFFSET -0.054170 1.746240 0.172020
						CHANNELS 3 Zrotation Yrotation Xrotation
						JOINT Head
						{
							OFFSET 0.104070 1.761360 -0.123970
							CHANNELS 3 Zrotation Yrotation Xrotation
							End Site
							{
								OFFSET 0.000000 0.000000 0.000000
							}
						}
					}
				}
				JOINT LeftShoulder
				{
					OFFSET 0.000000 0.000000 0.000000
					CHANNELS 3 Zrotation Yrotation Xrotation
					JOINT LeftArm
					{
						OFFSET 3.362410 1.200890 -0.311210
						CHANNELS 3 Zrotation Yrotation Xrotation
						JOINT LeftForeArm
						{
							OFFSET 4.983000 -0.000000 -0.000000
							CHANNELS 3 Zrotation Yrotation Xrotation
							JOINT LeftHand
							{
								OFFSET 3.483560 -0.000000 -0.000000
								CHANNELS 3 Zrotation Yrotation Xrotation
								JOINT LeftFingerBase
								{
									OFFSET 0.000000 0.000000 0.000000
									CHANNELS 3 Zrotation Yrotation Xrotation
									JOINT LeftHandIndex1
									{
										OFFSET 0.715260 -0.000000 -0.000000
										CHANNELS 3 Zrotation Yrotation Xrotation
										End Site
										{
											OFFSET 0.000000 0.000000 0.000000
										}
									}
								}
								JOINT LThumb
								{
									OFFSET 0.000000 0.000000 0.000000
									CHANNELS 3 Zrotation Yrotation Xrotation
									End Site
									{
										OFFSET 0.000000 0.000000 0.000000
									}
								}
							}
						}
					}
				}
				JOINT RightShoulder
				{
					OFFSET 0.000000 0.000000 0.000000
					CHANNELS 3 Zrotation Yrotation Xrotation
					JOINT RightArm
					{
						OFFSET -3.136600 1.374050 -0.404650
						CHANNELS 3 Zrotation Yrotation Xrotation
						JOINT RightForeArm
						{
							OFFSET -5.241900 -0.000000 -0.000000
							CHANNELS 3 Zrotation Yrotation Xrotation
							JOINT RightHand
							{
								OFFSET -3.444170 -0.000000 -0.000000
								CHANNELS 3 Zrotation Yrotation Xrotation
								JOINT RightFingerBase
								{
									OFFSET 0.000000 0.000000 0.000000
									CHANNELS 3 Zrotation Yrotation Xrotation
									JOINT RightHandIndex1
									{
										OFFSET -0.622530 -0.000000 -0.000000
										CHANNELS 3 Zrotation Yrotation Xrotation
										End Site
										{
											OFFSET 0.000000 0.000000 0.000000
										}
									}
								}
								JOINT RThumb
								{
									OFFSET 0.000000 0.000000 0.000000
									CHANNELS 3 Zrotation Yrotation Xrotation
									End Site
									{
										OFFSET 0.000000 0.000000 0.000000
									}
								}
							}
						}
					}
				}
			}
		}
	}
}
MOTION
Frames: 10
Frame Time: 0.008333
-12.522541 16.921173 -0.623421 144.744575 85.809806 160.155837 -10.990070 3.944230 -0.077171 -5.408208 1.727839 -2.179327 -0.825223 1.842786 28.809342 0.264372 -3.261159 12.078746 -1.084700 0.000000 -86.152600 8.151990 -0.077067 3.644992 10.770758 7.031257 -36.644890 3.203926 1.041582 4.958544 -0.328469 -1.738779 0.632191 -0.989601 0.000000 -37.533700 0.953556 -3.777478 -2.680336 -0.554310 -4.006452 -3.263544 -7.441663 -4.061884 1.075347 9.876627 -7.327988 -6.907427 -4.272957 -0.332023 0.166986 0.000000 0.000000 0.000000 -3.954733 3.833154 2.094325 -50.423143 -6.223661 12.938299 -2.784559 -44.345166 -0.006205 8.728513 -0.595070 -0.050201 -0.155766 0.068471 0.000000 0.000000 0.000000 0.000000 0.000000 0.000000 0.000000 19.153756 -7.045948 1.136346 65.152429 -5.801591 -11.945921 4.032941 10.640475 0.004976 -0.047052 2.396044 -0.003117 0.110756 -0.026063 -0.000000 0.000000 0.000000 0.000000 0.000000 0.000000 0.000000 
-12.261484 16.924768 -0.604579 148.231189 85.931074 163.617287 -11.206244 3.911887 -0.108528 -4.714465 2.308735 -4.074916 -0.485103 2.026717 32.776963 0.467192 -3.146151 15.026793 -1.329100 0.000000 -85.067300 8.064680 -0.263152 3.881098 10.891424 8.167245 -36.149915 3.089553 0.892660 5.966771 -0.444159 -2.426840 1.017674 -1.155101 0.000000 -31.482900 1.359450 -3.678165 -2.978454 -0.471184 -3.946135 -3.320076 -7.406488 -4.001456 1.103159 9.728524 -7.277477 -6.868728 -4.285272 -0.334154 0.182640 0.000000 0.000000 0.000000 -4.258225 4.167164 2.019623 -51.165716 -5.914021 12.959597 -2.803369 -43.930321 -0.005547 8.470571 -0.521931 -0.042927 -0.152114 0.064188 0.000000 0.000000 0.000000 0.000000 0.000000 0.000000 0.000000 19.041606 -6.938124 1.078423 65.316222 -5.699277 -11.782356 4.070878 10.652199 0.004739 0.095268 2.229265 -0.000116 0.111363 -0.024936 -0.000000 0.000000 0.000000 0.000000 0.000000 0.000000 0.000000 
-12.003753 16.929209 -0.588940 152.969200 86.124384 168.395748 -11.420908 3.802847 -0.133572 -4.017743 2.802011 -6.166991 -0.161269 2.167038 36.838830 0.715120 -2.521815 17.664011 -1.362499 0.000000 -81.795200 7.941516 -0.449291 4.133408 11.147601 9.352725 -35.792761 3.010946 0.749883 7.018923 -0.535453 -2.952158 1.281648 -1.286200 -0.000001 -25.175000 1.870124 -3.550755 -3.295364 -0.372146 -3.867567 -3.384745 -7.376305 -3.922711 1.117786 9.591189 -7.194587 -6.839631 -4.297759 -0.336239 0.195647 0.000000 0.000000 0.000000 -4.567656 4.493756 1.948467 -51.973777 -5.553171 12.930960 -2.817743 -43.475245 -0.005003 8.245250 -0.445700 -0.035856 -0.148140 0.060097 0.000000 0.000000 0.000000 0.000000 0.000000 0.000000 0.000000 18.925216 -6.776275 1.034674 65.456329 -5.534651 -11.574797 4.111570 10.708769 0.004533 0.274885 2.074990 0.003186 0.111770 -0.024205 -0.000000 0.000000 0.000000 0.000000 0.000000 0.000000 0.000000 
-11.751235 16.934752 -0.575507 158.622602 86.371219 174.129037 -11.618048 3.633006 -0.158571 -3.392031 3.174009 -8.378128 0.121725 2.283910 40.913355 0.985144 -1.340679 19.760347 -1.086800 0.000000 -76.483500 7.798341 -0.620048 4.370290 11.511966 10.499323 -35.539726 2.962623 0.608754 8.130704 -0.596586 -3.286360 1.416454 -1.369200 0.000000 -19.455400 2.424325 -3.399412 -3.587895 -0.270957 -3.768901 -3.446902 -7.352820 -3.823153 1.125751 9.484508 -7.095961 -6.832843 -4.310119 -0.338032 0.201872 0.000000 0.000000 0.000000 -4.856836 4.838365 1.881405 -52.841875 -5.200685 12.860913 -2.828581 -42.956384 -0.004585 8.069853 -0.374268 -0.029692 -0.144040 0.056411 0.000000 0.000000 0.000000 0.000000 0.000000 0.000000 0.000000 18.832575 -6.576636 1.005399 65.567289 -5.259483 -11.275128 4.149724 10.797679 0.004383 0.467811 1.950766 0.006290 0.111888 -0.023922 -0.000000 0.000000 0.000000 0.000000 0.000000 0.000000 0.000000 
-11.504928 16.941662 -0.564016 165.326987 86.652409 -179.061290 -11.803949 3.417071 -0.187879 -2.843882 3.436955 -10.684545 0.358214 2.398915 44.944852 1.255537 0.333737 21.136347 -0.489400 -0.000000 -69.723900 7.631127 -0.772819 4.579198 11.978798 11.575284 -35.347213 2.941636 0.473277 9.282496 -0.633761 -3.456975 1.384648 -1.403300 0.000000 -14.469600 2.999248 -3.229829 -3.837592 -0.173558 -3.652803 -3.505597 -7.336743 -3.705476 1.116975 9.408712 -6.957884 -6.836688 -4.323476 -0.339713 0.204439 0.000000 0.000000 0.000000 -5.121013 5.160520 1.822553 -53.757050 -4.803662 12.728570 -2.832365 -42.411694 -0.004288 7.951270 -0.304604 -0.024135 -0.139627 0.053059 0.000000 0.000000 0.000000 0.000000 0.000000 0.000000 0.000000 18.762283 -6.317522 0.994984 65.660255 -4.885572 -10.948862 4.183523 10.906509 0.004328 0.665790 1.875049 0.009396 0.111664 -0.024334 -0.000000 0.000000 0.000000 0.000000 0.000000 0.000000 0.000000 
-11.265700 16.950401 -0.553387 172.752399 86.938813 -171.523880 -11.982980 3.169963 -0.223156 -2.406447 3.585056 -13.046192 0.556789 2.527575 48.856813 1.513123 2.395369 21.720242 0.367100 0.000000 -62.406100 7.441620 -0.904245 4.742700 12.512747 12.533940 -35.162529 2.940490 0.345423 10.454564 -0.651823 -3.486260 1.167100 -1.389300 -0.000000 -10.404700 3.537898 -3.054329 -4.021300 -0.090345 -3.525606 -3.555434 -7.327890 -3.576130 1.093459 9.372456 -6.780920 -6.850831 -4.338239 -0.341258 0.203114 0.000000 0.000000 0.000000 -5.346846 5.458356 1.774124 -54.706902 -4.376056 12.536972 -2.829927 -41.838442 -0.004094 7.890018 -0.238108 -0.019083 -0.134981 0.050041 0.000000 0.000000 0.000000 0.000000 0.000000 0.000000 0.000000 18.728922 -6.004601 1.002716 65.739189 -4.397267 -10.595787 4.209072 11.022855 0.004395 0.846991 1.861372 0.012306 0.111065 -0.025505 -0.000000 0.000000 0.000000 0.000000 0.000000 0.000000 0.000000 
-11.033753 16.961399 -0.542595 -179.489104 87.196604 -163.658666 -12.158299 2.896738 -0.261288 -2.094450 3.603944 -15.434165 0.734960 2.671818 52.579111 1.751826 4.691514 21.536706 1.359799 0.000000 -55.406200 7.231966 -1.017796 4.852300 13.081517 13.345555 -34.936913 2.953547 0.229029 11.607269 -0.659014 -3.409986 0.744555 -1.333400 0.000000 -7.182701 3.998827 -2.888574 -4.130331 -0.025900 -3.399055 -3.594113 -7.325119 -3.447644 1.055897 9.378411 -6.560828 -6.869752 -4.354821 -0.342716 0.199246 0.000000 0.000000 0.000000 -5.527801 5.719728 1.739360 -55.677636 -3.914956 12.288104 -2.822583 -41.239261 -0.003982 7.878242 -0.172731 -0.014334 -0.130159 0.047305 0.000000 0.000000 0.000000 0.000000 0.000000 0.000000 0.000000 18.738676 -5.642400 1.026519 65.811143 -3.794629 -10.233729 4.223472 11.136490 0.004597 0.992714 1.918907 0.015217 0.110094 -0.027464 -0.000000 0.000000 0.000000 0.000000 0.000000 0.000000 0.000000 
-10.808837 16.975072 -0.530769 -171.826246 87.398559 -155.899902 -12.323410 2.597033 -0.295943 -1.907151 3.473305 -17.827422 0.908100 2.823111 56.051495 1.969387 7.057342 20.667686 2.347100 0.000000 -49.321300 7.013236 -1.118703 4.907954 13.658129 13.998066 -34.629297 2.977215 0.128679 12.682584 -0.665055 -3.273087 0.117235 -1.246000 0.000000 -4.610400 4.364684 -2.746161 -4.169191 0.021347 -3.285884 -3.621615 -7.327124 -3.333826 1.005751 9.423597 -6.285992 -6.885446 -4.373406 -0.344151 0.194943 0.000000 0.000000 0.000000 -5.664577 5.944859 1.722167 -56.655369 -3.431261 11.998184 -2.813208 -40.605404 -0.003933 7.902727 -0.105789 -0.009591 -0.125276 0.044835 0.000000 0.000000 0.000000 0.000000 0.000000 0.000000 0.000000 18.789104 -5.228391 1.061540 65.886709 -3.094989 -9.910680 4.225222 11.245301 0.004929 1.093280 2.048865 0.018132 0.108771 -0.030202 -0.000000 0.000000 0.000000 0.000000 0.000000 0.000000 0.000000 
-10.590287 16.991753 -0.516947 -164.816577 87.540579 -148.808572 -12.460952 2.275442 -0.320246 -1.843940 3.175215 -20.203898 1.081539 2.970816 59.217171 2.163653 9.342932 19.204495 3.201699 -0.000000 -44.276400 6.809078 -1.206837 4.911232 14.214879 14.483024 -34.205625 3.008537 0.048343 13.622096 -0.676659 -3.109758 -0.692577 -1.137300 0.000001 -2.528300 4.625383 -2.633750 -4.146402 0.053108 -3.192853 -3.637923 -7.332957 -3.242192 0.946731 9.506201 -5.978775 -6.895090 -4.393550 -0.345575 0.191095 0.000000 0.000000 0.000000 -5.753453 6.117608 1.722263 -57.632793 -2.911295 11.662221 -2.803054 -39.937633 -0.003917 7.941239 -0.034788 -0.004448 -0.120265 0.042524 0.000000 0.000000 0.000000 0.000000 0.000000 0.000000 0.000000 18.881451 -4.794027 1.103803 65.965783 -2.287969 -9.575464 4.212700 11.342800 0.005363 1.124925 2.249186 0.020549 0.107235 -0.033577 -0.000000 0.000000 0.000000 0.000000 0.000000 0.000000 0.000000 
-10.376896 17.011581 -0.500641 -158.754617 87.636536 -142.674606 -12.558600 1.941253 -0.325545 -1.885564 2.702808 -22.549749 1.250963 3.107064 62.020629 2.331698 11.418997 17.240309 3.824801 0.000000 -40.144000 6.635681 -1.279929 4.870382 14.734680 14.816624 -33.640110 3.046177 -0.005512 14.359651 -0.699166 -2.957103 -1.638385 -1.019401 0.000000 -0.769700 4.789827 -2.550904 -4.081290 0.071760 -3.121126 -3.645895 -7.341813 -3.173938 0.881101 9.616763 -5.636909 -6.891413 -4.414866 -0.347057 0.189903 0.000000 0.000000 0.000000 -5.801069 6.245556 1.739400 -58.599244 -2.360487 11.297118 -2.794337 -39.225478 -0.003909 7.972948 0.044291 0.001193 -0.115158 0.040292 0.000000 0.000000 0.000000 0.000000 0.000000 0.000000 0.000000 19.004712 -4.339904 1.147930 66.059353 -1.398763 -9.261782 4.186790 11.435194 0.005865 1.087434 2.508544 0.022067 0.105567 -0.037517 -0.000000 0.000000 0.000000 0.000000 0.000000 0.000000 0.000000 
